<?xml version="1.0" standalone="no"?> <!DOCTYPE svg PUBLIC "-//W3C//DTD SVG 20010904//EN" "http://www.w3.org/TR/2001/REC-SVG-20010904/DTD/svg10.dtd"> <svg version="1.0" xmlns="http://www.w3.org/2000/svg" width="256.000000pt" height="256.000000pt" viewBox="0 0 256.000000 256.000000" preserveAspectRatio="xMidYMid meet"> <g transform="translate(0.000000,256.000000) scale(0.100000,-0.100000)" fill="#ffffff" stroke="none"> <path d="M1558 1918 c-10 -7 -40 -71 -68 -143 -28 -71 -59 -150 -70 -175 -56 -132 -99 -241 -114 -287 -21 -62 -21 -61 72 -180 106 -134 126 -167 113 -192 -6 -11 -21 -26 -32 -32 -38 -20 -28 -31 -413 459 -75 96 -128 155 -143 158 -38 10 -70 -4 -91 -38 -113 -188 -198 -328 -242 -398 -29 -47 -72 -116 -95 -155 -23 -38 -74 -123 -113 -187 -40 -65 -72 -129 -72 -143 0 -14 9 -34 20 -45 20 -20 33 -20 944 -20 881 0 925 1 946 18 31 25 29 61 -8 142 -69 150 -251 563 -285 645 -14 33 -48 112 -77 175 -28 63 -67 151 -86 195 -19 44 -49 109 -67 145 -29 60 -35 65 -67 68 -19 2 -43 -3 -52 -10z"/> </g> </svg>