<?xml version="1.0" encoding="utf-8"?>
<!-- Generator: Adobe Illustrator 15.1.0, SVG Export Plug-In . SVG Version: 6.00 Build 0)  -->
<!DOCTYPE svg PUBLIC "-//W3C//DTD SVG 1.1//EN" "http://www.w3.org/Graphics/SVG/1.1/DTD/svg11.dtd">
<svg version="1.1" id="Calque_1" xmlns="http://www.w3.org/2000/svg" xmlns:xlink="http://www.w3.org/1999/xlink" x="0px" y="0px"
	 width="256px" height="256px" viewBox="0 0 256 256" enable-background="new 0 0 256 256" xml:space="preserve">
<g transform="translate(0.000000,256.000000) scale(0.100000,-0.100000)">
	<path fill="#D1CDD8" d="M1557.998,1917.998c-10-6.997-40-70.996-67.998-142.998c-27.998-71.001-59.004-150-70-175
		c-55.996-132.002-99.004-241.001-114.004-287.002c-20.996-62.002-20.996-60.996,72.002-180
		c106.006-133.994,126.006-167.002,112.998-192.002C1485,930,1470,915,1459.004,909.004c-38.008-20-28.008-31.006-413.003,458.994
		c-75,96.001-128.003,155-143.003,158.003c-37.998,10-70-3.999-90.996-38.003C698.999,1300,613.999,1160,570,1090
		c-28.999-47.002-72.002-115.996-95-155c-22.998-37.998-73.999-122.998-112.998-187.002C322.002,682.998,290,619.004,290,605
		s8.999-34.004,20-45c20-20,32.998-20,943.999-20c881.001,0,925.005,0.996,946.001,17.998c30.996,25,29.004,61.006-7.998,142.002
		c-69.004,150-251.006,562.998-285,645c-14.004,32.998-47.998,112.002-77.002,175c-27.998,62.998-67.002,151.001-85.996,195
		c-19.004,43.999-49.004,108.999-67.002,145c-29.004,60-35,65-67.002,67.998C1590.996,1930,1567.002,1925,1557.998,1917.998z"/>
</g>
</svg>
